<!DOCTYPE svg PUBLIC "-//W3C//DTD SVG 1.1//EN" "http://www.w3.org/Graphics/SVG/1.1/DTD/svg11.dtd">

<!-- Uploaded to: SVG Repo, www.svgrepo.com, Transformed by: SVG Repo Mixer Tools -->
<svg width="25px" height="25px" viewBox="0 0 17.00 17.00" version="1.1" xmlns="http://www.w3.org/2000/svg" xmlns:xlink="http://www.w3.org/1999/xlink" fill="#ffffff" stroke="#ffffff" stroke-width="0.00017" transform="rotate(0)">

<g id="SVGRepo_bgCarrier" stroke-width="0"/>

<g id="SVGRepo_tracerCarrier" stroke-linecap="round" stroke-linejoin="round" stroke="#CCCCCC" stroke-width="0.068"/>

<g id="SVGRepo_iconCarrier"> <path d="M13 4v-2.394c0-0.885-0.737-1.606-1.643-1.606h-5.699c-0.905 0-1.642 0.721-1.642 1.606v2.394h-3.016v13h15v-13h-3zM5.016 1.606c0-0.334 0.288-0.606 0.642-0.606h5.699c0.355 0 0.643 0.272 0.643 0.606v2.394h-6.984v-2.394zM15 16h-13v-8h13v8zM15 7h-13v-2h2.016v0.643h1v-0.643h6.984v0.643h1v-0.643h2v2z" fill="#ffffff"/> </g>

</svg>