<svg width="500" height="500" viewBox="0 0 500 500" fill="none" xmlns="http://www.w3.org/2000/svg">
<rect width="500" height="500" fill="#FFC038"/>
<path d="M132.176 268.023V270H125.67V258.69H132.176V260.658H128.068V263.142H131.893V265.101H128.068V268.023H132.176ZM169.505 270H167.116V265.677L163.369 258.69H165.965L168.311 263.348L170.674 258.69H173.253L169.505 265.6V270ZM211.44 268.023V270H204.934V258.69H211.44V260.658H207.331V263.142H211.156V265.101H207.331V268.023H211.44ZM257.948 258.69L255.068 270H252.335L250.806 264.061C250.754 263.872 250.659 263.442 250.522 262.772C250.384 262.102 250.304 261.649 250.281 261.414C250.258 261.695 250.181 262.145 250.049 262.763L249.766 264.078L248.236 270H245.52L242.632 258.69H244.987L246.439 264.86C246.703 266.069 246.886 267.058 246.99 267.826C247.018 267.528 247.084 267.089 247.187 266.511C247.296 265.926 247.405 265.431 247.514 265.024L249.164 258.69H251.424L253.074 265.024C253.143 265.27 253.232 265.706 253.341 266.33C253.433 266.794 253.516 267.293 253.59 267.826C253.636 267.482 253.716 266.992 253.831 266.356C253.951 265.72 254.057 265.221 254.149 264.86L255.584 258.69H257.948ZM296.148 268.023V270H289.642V258.69H296.148V260.658H292.04V263.142H295.865V265.101H292.04V268.023H296.148ZM338.273 270H335.686L334.869 267.31H330.744L329.928 270H327.341L331.328 258.647H334.259L338.273 270ZM331.346 265.299H334.294L333.013 261.165C332.921 260.855 332.853 260.6 332.807 260.4C332.652 261.019 332.165 262.652 331.346 265.299ZM372.366 265.66V270H369.968V258.69H373.259C374.789 258.69 375.924 258.97 376.663 259.532C377.408 260.088 377.78 260.936 377.78 262.076C377.78 262.74 377.597 263.334 377.23 263.855C376.869 264.371 376.351 264.777 375.674 265.075C377.376 267.614 378.485 269.255 379.001 270H376.336L373.638 265.66H372.366ZM372.366 260.658V263.709H373.139C373.895 263.709 374.454 263.583 374.815 263.331C375.176 263.079 375.356 262.686 375.356 262.153C375.356 261.62 375.173 261.239 374.806 261.01C374.445 260.775 373.872 260.658 373.088 260.658H372.366Z" fill="black"/>
<mask id="path-3-outside-1_3_10" maskUnits="userSpaceOnUse" x="120" y="202" width="258" height="41" fill="black">
<rect fill="white" x="120" y="202" width="258" height="41"/>
<path d="M156.087 203.412V242H145.677L128.905 212.824H128.67C129.003 218.102 129.169 221.777 129.169 223.849V242H121.868V203.412H132.16L148.932 232.324H149.108C148.854 227.495 148.727 223.947 148.727 221.679V203.412H156.087ZM204.631 242H195.805L193.02 232.822H178.945L176.159 242H167.333L180.939 203.265H190.938L204.631 242ZM180.997 225.961H191.055L186.686 211.856C186.373 210.801 186.139 209.931 185.982 209.247C185.454 211.358 183.793 216.929 180.997 225.961ZM226.978 210.214V242H218.797V210.214H208.329V203.412H237.447V210.214H226.978ZM257.939 227.192V242H249.758V203.412H260.988C266.207 203.412 270.078 204.369 272.6 206.285C275.141 208.181 276.412 211.074 276.412 214.965C276.412 217.232 275.786 219.255 274.535 221.034C273.304 222.794 271.534 224.182 269.228 225.198C275.034 233.858 278.816 239.459 280.576 242H271.486L262.278 227.192H257.939ZM257.939 210.126V220.536H260.578C263.158 220.536 265.064 220.106 266.295 219.246C267.527 218.386 268.143 217.047 268.143 215.229C268.143 213.411 267.517 212.111 266.266 211.329C265.035 210.527 263.08 210.126 260.402 210.126H257.939ZM324.252 242H315.426L312.64 232.822H298.565L295.78 242H286.954L300.559 203.265H310.558L324.252 242ZM300.618 225.961H310.676L306.306 211.856C305.994 210.801 305.759 209.931 305.603 209.247C305.075 211.358 303.413 216.929 300.618 225.961ZM369.131 223.732C369.131 222.501 369.131 221.523 369.131 220.8C369.15 220.057 369.287 217.056 369.541 211.798H369.307L359.337 242H351.86L342.565 211.739H342.33C342.662 218.092 342.829 222.198 342.829 224.055V242H335.527V203.412H346.641L355.789 232.91H355.936L365.612 203.412H376.755V242H369.131V223.732Z"/>
</mask>
<path d="M156.087 203.412V242H145.677L128.905 212.824H128.67C129.003 218.102 129.169 221.777 129.169 223.849V242H121.868V203.412H132.16L148.932 232.324H149.108C148.854 227.495 148.727 223.947 148.727 221.679V203.412H156.087ZM204.631 242H195.805L193.02 232.822H178.945L176.159 242H167.333L180.939 203.265H190.938L204.631 242ZM180.997 225.961H191.055L186.686 211.856C186.373 210.801 186.139 209.931 185.982 209.247C185.454 211.358 183.793 216.929 180.997 225.961ZM226.978 210.214V242H218.797V210.214H208.329V203.412H237.447V210.214H226.978ZM257.939 227.192V242H249.758V203.412H260.988C266.207 203.412 270.078 204.369 272.6 206.285C275.141 208.181 276.412 211.074 276.412 214.965C276.412 217.232 275.786 219.255 274.535 221.034C273.304 222.794 271.534 224.182 269.228 225.198C275.034 233.858 278.816 239.459 280.576 242H271.486L262.278 227.192H257.939ZM257.939 210.126V220.536H260.578C263.158 220.536 265.064 220.106 266.295 219.246C267.527 218.386 268.143 217.047 268.143 215.229C268.143 213.411 267.517 212.111 266.266 211.329C265.035 210.527 263.08 210.126 260.402 210.126H257.939ZM324.252 242H315.426L312.64 232.822H298.565L295.78 242H286.954L300.559 203.265H310.558L324.252 242ZM300.618 225.961H310.676L306.306 211.856C305.994 210.801 305.759 209.931 305.603 209.247C305.075 211.358 303.413 216.929 300.618 225.961ZM369.131 223.732C369.131 222.501 369.131 221.523 369.131 220.8C369.15 220.057 369.287 217.056 369.541 211.798H369.307L359.337 242H351.86L342.565 211.739H342.33C342.662 218.092 342.829 222.198 342.829 224.055V242H335.527V203.412H346.641L355.789 232.91H355.936L365.612 203.412H376.755V242H369.131V223.732Z" fill="#120D0D"/>
<path d="M156.087 203.412H157.087V202.412H156.087V203.412ZM156.087 242V243H157.087V242H156.087ZM145.677 242L144.81 242.498L145.099 243H145.677V242ZM128.905 212.824L129.772 212.326L129.484 211.824H128.905V212.824ZM128.67 212.824V211.824H127.605L127.672 212.887L128.67 212.824ZM129.169 242V243H130.169V242H129.169ZM121.868 242H120.868V243H121.868V242ZM121.868 203.412V202.412H120.868V203.412H121.868ZM132.16 203.412L133.025 202.91L132.736 202.412H132.16V203.412ZM148.932 232.324L148.067 232.825L148.356 233.324H148.932V232.324ZM149.108 232.324V233.324H150.162L150.107 232.271L149.108 232.324ZM148.727 203.412V202.412H147.727V203.412H148.727ZM155.087 203.412V242H157.087V203.412H155.087ZM156.087 241H145.677V243H156.087V241ZM146.544 241.502L129.772 212.326L128.038 213.322L144.81 242.498L146.544 241.502ZM128.905 211.824H128.67V213.824H128.905V211.824ZM127.672 212.887C128.005 218.166 128.169 221.813 128.169 223.849H130.169C130.169 221.742 130.001 218.038 129.668 212.761L127.672 212.887ZM128.169 223.849V242H130.169V223.849H128.169ZM129.169 241H121.868V243H129.169V241ZM122.868 242V203.412H120.868V242H122.868ZM121.868 204.412H132.16V202.412H121.868V204.412ZM131.295 203.913L148.067 232.825L149.797 231.822L133.025 202.91L131.295 203.913ZM148.932 233.324H149.108V231.324H148.932V233.324ZM150.107 232.271C149.853 227.445 149.727 223.919 149.727 221.679H147.727C147.727 223.975 147.855 227.545 148.11 232.376L150.107 232.271ZM149.727 221.679V203.412H147.727V221.679H149.727ZM148.727 204.412H156.087V202.412H148.727V204.412ZM204.631 242V243H206.046L205.574 241.667L204.631 242ZM195.805 242L194.848 242.29L195.064 243H195.805V242ZM193.02 232.822L193.977 232.532L193.761 231.822H193.02V232.822ZM178.945 232.822V231.822H178.203L177.988 232.532L178.945 232.822ZM176.159 242V243H176.901L177.116 242.29L176.159 242ZM167.333 242L166.39 241.669L165.922 243H167.333V242ZM180.939 203.265V202.265H180.23L179.995 202.934L180.939 203.265ZM190.938 203.265L191.881 202.932L191.645 202.265H190.938V203.265ZM180.997 225.961L180.042 225.665L179.641 226.961H180.997V225.961ZM191.055 225.961V226.961H192.412L192.01 225.665L191.055 225.961ZM186.686 211.856L185.727 212.141L185.731 212.152L186.686 211.856ZM185.982 209.247L186.957 209.024L185.012 209.004L185.982 209.247ZM204.631 241H195.805V243H204.631V241ZM196.762 241.71L193.977 232.532L192.063 233.112L194.848 242.29L196.762 241.71ZM193.02 231.822H178.945V233.822H193.02V231.822ZM177.988 232.532L175.202 241.71L177.116 242.29L179.902 233.112L177.988 232.532ZM176.159 241H167.333V243H176.159V241ZM168.277 242.331L181.882 203.596L179.995 202.934L166.39 241.669L168.277 242.331ZM180.939 204.265H190.938V202.265H180.939V204.265ZM189.995 203.598L203.689 242.333L205.574 241.667L191.881 202.932L189.995 203.598ZM180.997 226.961H191.055V224.961H180.997V226.961ZM192.01 225.665L187.641 211.561L185.731 212.152L190.1 226.256L192.01 225.665ZM187.645 211.572C187.335 210.527 187.107 209.679 186.957 209.024L185.007 209.47C185.17 210.182 185.411 211.075 185.727 212.141L187.645 211.572ZM185.012 209.004C184.493 211.082 182.841 216.622 180.042 225.665L181.953 226.256C184.745 217.236 186.416 211.634 186.952 209.489L185.012 209.004ZM226.978 210.214V209.214H225.978V210.214H226.978ZM226.978 242V243H227.978V242H226.978ZM218.797 242H217.797V243H218.797V242ZM218.797 210.214H219.797V209.214H218.797V210.214ZM208.329 210.214H207.329V211.214H208.329V210.214ZM208.329 203.412V202.412H207.329V203.412H208.329ZM237.447 203.412H238.447V202.412H237.447V203.412ZM237.447 210.214V211.214H238.447V210.214H237.447ZM225.978 210.214V242H227.978V210.214H225.978ZM226.978 241H218.797V243H226.978V241ZM219.797 242V210.214H217.797V242H219.797ZM218.797 209.214H208.329V211.214H218.797V209.214ZM209.329 210.214V203.412H207.329V210.214H209.329ZM208.329 204.412H237.447V202.412H208.329V204.412ZM236.447 203.412V210.214H238.447V203.412H236.447ZM237.447 209.214H226.978V211.214H237.447V209.214ZM257.939 227.192V226.192H256.939V227.192H257.939ZM257.939 242V243H258.939V242H257.939ZM249.758 242H248.758V243H249.758V242ZM249.758 203.412V202.412H248.758V203.412H249.758ZM272.6 206.285L271.995 207.081L272.002 207.087L272.6 206.285ZM274.535 221.034L273.717 220.459L273.716 220.461L274.535 221.034ZM269.228 225.198L268.824 224.283L267.733 224.764L268.397 225.755L269.228 225.198ZM280.576 242V243H282.484L281.398 241.431L280.576 242ZM271.486 242L270.636 242.528L270.93 243H271.486V242ZM262.278 227.192L263.127 226.664L262.834 226.192H262.278V227.192ZM257.939 210.126V209.126H256.939V210.126H257.939ZM257.939 220.536H256.939V221.536H257.939V220.536ZM266.295 219.246L265.723 218.426L265.723 218.426L266.295 219.246ZM266.266 211.329L265.721 212.167L265.728 212.172L265.736 212.177L266.266 211.329ZM256.939 227.192V242H258.939V227.192H256.939ZM257.939 241H249.758V243H257.939V241ZM250.758 242V203.412H248.758V242H250.758ZM249.758 204.412H260.988V202.412H249.758V204.412ZM260.988 204.412C266.119 204.412 269.728 205.359 271.995 207.081L273.205 205.489C270.428 203.38 266.296 202.412 260.988 202.412V204.412ZM272.002 207.087C274.232 208.751 275.412 211.31 275.412 214.965H277.412C277.412 210.839 276.05 207.612 273.198 205.484L272.002 207.087ZM275.412 214.965C275.412 217.036 274.845 218.856 273.717 220.459L275.353 221.61C276.728 219.655 277.412 217.429 277.412 214.965H275.412ZM273.716 220.461C272.606 222.046 270.993 223.327 268.824 224.283L269.631 226.113C272.076 225.036 274.001 223.541 275.354 221.608L273.716 220.461ZM268.397 225.755C274.202 234.413 277.989 240.021 279.753 242.569L281.398 241.431C279.643 238.897 275.865 233.303 270.058 224.641L268.397 225.755ZM280.576 241H271.486V243H280.576V241ZM272.335 241.472L263.127 226.664L261.429 227.72L270.636 242.528L272.335 241.472ZM262.278 226.192H257.939V228.192H262.278V226.192ZM256.939 210.126V220.536H258.939V210.126H256.939ZM257.939 221.536H260.578V219.536H257.939V221.536ZM260.578 221.536C263.232 221.536 265.386 221.1 266.868 220.066L265.723 218.426C264.742 219.111 263.084 219.536 260.578 219.536V221.536ZM266.868 220.066C268.426 218.978 269.143 217.295 269.143 215.229H267.143C267.143 216.798 266.628 217.793 265.723 218.426L266.868 220.066ZM269.143 215.229C269.143 213.158 268.41 211.489 266.796 210.481L265.736 212.177C266.624 212.732 267.143 213.663 267.143 215.229H269.143ZM266.812 210.49C265.332 209.528 263.136 209.126 260.402 209.126V211.126C263.023 211.126 264.737 211.527 265.721 212.167L266.812 210.49ZM260.402 209.126H257.939V211.126H260.402V209.126ZM324.252 242V243H325.666L325.195 241.667L324.252 242ZM315.426 242L314.469 242.29L314.684 243H315.426V242ZM312.64 232.822L313.597 232.532L313.382 231.822H312.64V232.822ZM298.565 232.822V231.822H297.824L297.608 232.532L298.565 232.822ZM295.78 242V243H296.521L296.737 242.29L295.78 242ZM286.954 242L286.01 241.669L285.542 243H286.954V242ZM300.559 203.265V202.265H299.851L299.616 202.934L300.559 203.265ZM310.558 203.265L311.501 202.932L311.265 202.265H310.558V203.265ZM300.618 225.961L299.663 225.665L299.262 226.961H300.618V225.961ZM310.676 225.961V226.961H312.032L311.631 225.665L310.676 225.961ZM306.306 211.856L305.348 212.141L305.351 212.152L306.306 211.856ZM305.603 209.247L306.578 209.024L304.633 209.004L305.603 209.247ZM324.252 241H315.426V243H324.252V241ZM316.383 241.71L313.597 232.532L311.683 233.112L314.469 242.29L316.383 241.71ZM312.64 231.822H298.565V233.822H312.64V231.822ZM297.608 232.532L294.823 241.71L296.737 242.29L299.522 233.112L297.608 232.532ZM295.78 241H286.954V243H295.78V241ZM287.897 242.331L301.503 203.596L299.616 202.934L286.01 241.669L287.897 242.331ZM300.559 204.265H310.558V202.265H300.559V204.265ZM309.615 203.598L323.309 242.333L325.195 241.667L311.501 202.932L309.615 203.598ZM300.618 226.961H310.676V224.961H300.618V226.961ZM311.631 225.665L307.262 211.561L305.351 212.152L309.72 226.256L311.631 225.665ZM307.265 211.572C306.956 210.527 306.727 209.679 306.578 209.024L304.628 209.47C304.791 210.182 305.032 211.075 305.348 212.141L307.265 211.572ZM304.633 209.004C304.113 211.082 302.462 216.622 299.663 225.665L301.573 226.256C304.365 217.236 306.037 211.634 306.573 209.489L304.633 209.004ZM369.131 220.8L368.131 220.773L368.131 220.787V220.8H369.131ZM369.541 211.798L370.54 211.846L370.591 210.798H369.541V211.798ZM369.307 211.798V210.798H368.584L368.357 211.484L369.307 211.798ZM359.337 242V243H360.06L360.287 242.313L359.337 242ZM351.86 242L350.904 242.294L351.121 243H351.86V242ZM342.565 211.739L343.521 211.446L343.304 210.739H342.565V211.739ZM342.33 211.739V210.739H341.276L341.331 211.791L342.33 211.739ZM342.829 242V243H343.829V242H342.829ZM335.527 242H334.527V243H335.527V242ZM335.527 203.412V202.412H334.527V203.412H335.527ZM346.641 203.412L347.596 203.115L347.377 202.412H346.641V203.412ZM355.789 232.91L354.834 233.206L355.052 233.91H355.789V232.91ZM355.936 232.91V233.91H356.66L356.886 233.222L355.936 232.91ZM365.612 203.412V202.412H364.888L364.662 203.1L365.612 203.412ZM376.755 203.412H377.755V202.412H376.755V203.412ZM376.755 242V243H377.755V242H376.755ZM369.131 242H368.131V243H369.131V242ZM370.131 223.732C370.131 223.73 370.131 223.727 370.131 223.725C370.131 223.722 370.131 223.72 370.131 223.718C370.131 223.715 370.131 223.713 370.131 223.71C370.131 223.708 370.131 223.706 370.131 223.703C370.131 223.701 370.131 223.698 370.131 223.696C370.131 223.694 370.131 223.691 370.131 223.689C370.131 223.686 370.131 223.684 370.131 223.682C370.131 223.679 370.131 223.677 370.131 223.675C370.131 223.672 370.131 223.67 370.131 223.667C370.131 223.665 370.131 223.663 370.131 223.66C370.131 223.658 370.131 223.655 370.131 223.653C370.131 223.651 370.131 223.648 370.131 223.646C370.131 223.643 370.131 223.641 370.131 223.639C370.131 223.636 370.131 223.634 370.131 223.632C370.131 223.629 370.131 223.627 370.131 223.624C370.131 223.622 370.131 223.62 370.131 223.617C370.131 223.615 370.131 223.613 370.131 223.61C370.131 223.608 370.131 223.605 370.131 223.603C370.131 223.601 370.131 223.598 370.131 223.596C370.131 223.594 370.131 223.591 370.131 223.589C370.131 223.587 370.131 223.584 370.131 223.582C370.131 223.579 370.131 223.577 370.131 223.575C370.131 223.572 370.131 223.57 370.131 223.568C370.131 223.565 370.131 223.563 370.131 223.561C370.131 223.558 370.131 223.556 370.131 223.553C370.131 223.551 370.131 223.549 370.131 223.546C370.131 223.544 370.131 223.542 370.131 223.539C370.131 223.537 370.131 223.535 370.131 223.532C370.131 223.53 370.131 223.528 370.131 223.525C370.131 223.523 370.131 223.521 370.131 223.518C370.131 223.516 370.131 223.513 370.131 223.511C370.131 223.509 370.131 223.506 370.131 223.504C370.131 223.502 370.131 223.499 370.131 223.497C370.131 223.495 370.131 223.492 370.131 223.49C370.131 223.488 370.131 223.485 370.131 223.483C370.131 223.481 370.131 223.478 370.131 223.476C370.131 223.474 370.131 223.471 370.131 223.469C370.131 223.467 370.131 223.464 370.131 223.462C370.131 223.46 370.131 223.457 370.131 223.455C370.131 223.453 370.131 223.45 370.131 223.448C370.131 223.446 370.131 223.443 370.131 223.441C370.131 223.439 370.131 223.436 370.131 223.434C370.131 223.432 370.131 223.429 370.131 223.427C370.131 223.425 370.131 223.422 370.131 223.42C370.131 223.418 370.131 223.416 370.131 223.413C370.131 223.411 370.131 223.409 370.131 223.406C370.131 223.404 370.131 223.402 370.131 223.399C370.131 223.397 370.131 223.395 370.131 223.392C370.131 223.39 370.131 223.388 370.131 223.385C370.131 223.383 370.131 223.381 370.131 223.379C370.131 223.376 370.131 223.374 370.131 223.372C370.131 223.369 370.131 223.367 370.131 223.365C370.131 223.362 370.131 223.36 370.131 223.358C370.131 223.355 370.131 223.353 370.131 223.351C370.131 223.349 370.131 223.346 370.131 223.344C370.131 223.342 370.131 223.339 370.131 223.337C370.131 223.335 370.131 223.332 370.131 223.33C370.131 223.328 370.131 223.326 370.131 223.323C370.131 223.321 370.131 223.319 370.131 223.316C370.131 223.314 370.131 223.312 370.131 223.31C370.131 223.307 370.131 223.305 370.131 223.303C370.131 223.3 370.131 223.298 370.131 223.296C370.131 223.294 370.131 223.291 370.131 223.289C370.131 223.287 370.131 223.284 370.131 223.282C370.131 223.28 370.131 223.278 370.131 223.275C370.131 223.273 370.131 223.271 370.131 223.268C370.131 223.266 370.131 223.264 370.131 223.262C370.131 223.259 370.131 223.257 370.131 223.255C370.131 223.253 370.131 223.25 370.131 223.248C370.131 223.246 370.131 223.243 370.131 223.241C370.131 223.239 370.131 223.237 370.131 223.234C370.131 223.232 370.131 223.23 370.131 223.228C370.131 223.225 370.131 223.223 370.131 223.221C370.131 223.219 370.131 223.216 370.131 223.214C370.131 223.212 370.131 223.209 370.131 223.207C370.131 223.205 370.131 223.203 370.131 223.2C370.131 223.198 370.131 223.196 370.131 223.194C370.131 223.191 370.131 223.189 370.131 223.187C370.131 223.185 370.131 223.182 370.131 223.18C370.131 223.178 370.131 223.176 370.131 223.173C370.131 223.171 370.131 223.169 370.131 223.167C370.131 223.164 370.131 223.162 370.131 223.16C370.131 223.158 370.131 223.155 370.131 223.153C370.131 223.151 370.131 223.149 370.131 223.146C370.131 223.144 370.131 223.142 370.131 223.14C370.131 223.137 370.131 223.135 370.131 223.133C370.131 223.131 370.131 223.129 370.131 223.126C370.131 223.124 370.131 223.122 370.131 223.12C370.131 223.117 370.131 223.115 370.131 223.113C370.131 223.111 370.131 223.108 370.131 223.106C370.131 223.104 370.131 223.102 370.131 223.099C370.131 223.097 370.131 223.095 370.131 223.093C370.131 223.091 370.131 223.088 370.131 223.086C370.131 223.084 370.131 223.082 370.131 223.079C370.131 223.077 370.131 223.075 370.131 223.073C370.131 223.071 370.131 223.068 370.131 223.066C370.131 223.064 370.131 223.062 370.131 223.059C370.131 223.057 370.131 223.055 370.131 223.053C370.131 223.051 370.131 223.048 370.131 223.046C370.131 223.044 370.131 223.042 370.131 223.04C370.131 223.037 370.131 223.035 370.131 223.033C370.131 223.031 370.131 223.028 370.131 223.026C370.131 223.024 370.131 223.022 370.131 223.02C370.131 223.017 370.131 223.015 370.131 223.013C370.131 223.011 370.131 223.009 370.131 223.006C370.131 223.004 370.131 223.002 370.131 223C370.131 222.998 370.131 222.995 370.131 222.993C370.131 222.991 370.131 222.989 370.131 222.987C370.131 222.984 370.131 222.982 370.131 222.98C370.131 222.978 370.131 222.976 370.131 222.973C370.131 222.971 370.131 222.969 370.131 222.967C370.131 222.965 370.131 222.963 370.131 222.96C370.131 222.958 370.131 222.956 370.131 222.954C370.131 222.952 370.131 222.949 370.131 222.947C370.131 222.945 370.131 222.943 370.131 222.941C370.131 222.938 370.131 222.936 370.131 222.934C370.131 222.932 370.131 222.93 370.131 222.928C370.131 222.925 370.131 222.923 370.131 222.921C370.131 222.919 370.131 222.917 370.131 222.915C370.131 222.912 370.131 222.91 370.131 222.908C370.131 222.906 370.131 222.904 370.131 222.901C370.131 222.899 370.131 222.897 370.131 222.895C370.131 222.893 370.131 222.891 370.131 222.888C370.131 222.886 370.131 222.884 370.131 222.882C370.131 222.88 370.131 222.878 370.131 222.875C370.131 222.873 370.131 222.871 370.131 222.869C370.131 222.867 370.131 222.865 370.131 222.863C370.131 222.86 370.131 222.858 370.131 222.856C370.131 222.854 370.131 222.852 370.131 222.85C370.131 222.847 370.131 222.845 370.131 222.843C370.131 222.841 370.131 222.839 370.131 222.837C370.131 222.835 370.131 222.832 370.131 222.83C370.131 222.828 370.131 222.826 370.131 222.824C370.131 222.822 370.131 222.819 370.131 222.817C370.131 222.815 370.131 222.813 370.131 222.811C370.131 222.809 370.131 222.807 370.131 222.804C370.131 222.802 370.131 222.8 370.131 222.798C370.131 222.796 370.131 222.794 370.131 222.792C370.131 222.789 370.131 222.787 370.131 222.785C370.131 222.783 370.131 222.781 370.131 222.779C370.131 222.777 370.131 222.775 370.131 222.772C370.131 222.77 370.131 222.768 370.131 222.766C370.131 222.764 370.131 222.762 370.131 222.76C370.131 222.757 370.131 222.755 370.131 222.753C370.131 222.751 370.131 222.749 370.131 222.747C370.131 222.745 370.131 222.743 370.131 222.74C370.131 222.738 370.131 222.736 370.131 222.734C370.131 222.732 370.131 222.73 370.131 222.728C370.131 222.726 370.131 222.724 370.131 222.721C370.131 222.719 370.131 222.717 370.131 222.715C370.131 222.713 370.131 222.711 370.131 222.709C370.131 222.707 370.131 222.705 370.131 222.702C370.131 222.7 370.131 222.698 370.131 222.696C370.131 222.694 370.131 222.692 370.131 222.69C370.131 222.688 370.131 222.686 370.131 222.683C370.131 222.681 370.131 222.679 370.131 222.677C370.131 222.675 370.131 222.673 370.131 222.671C370.131 222.669 370.131 222.667 370.131 222.665C370.131 222.662 370.131 222.66 370.131 222.658C370.131 222.656 370.131 222.654 370.131 222.652C370.131 222.65 370.131 222.648 370.131 222.646C370.131 222.644 370.131 222.641 370.131 222.639C370.131 222.637 370.131 222.635 370.131 222.633C370.131 222.631 370.131 222.629 370.131 222.627C370.131 222.625 370.131 222.623 370.131 222.621C370.131 222.618 370.131 222.616 370.131 222.614C370.131 222.612 370.131 222.61 370.131 222.608C370.131 222.606 370.131 222.604 370.131 222.602C370.131 222.6 370.131 222.598 370.131 222.596C370.131 222.594 370.131 222.591 370.131 222.589C370.131 222.587 370.131 222.585 370.131 222.583C370.131 222.581 370.131 222.579 370.131 222.577C370.131 222.575 370.131 222.573 370.131 222.571C370.131 222.569 370.131 222.567 370.131 222.565C370.131 222.562 370.131 222.56 370.131 222.558C370.131 222.556 370.131 222.554 370.131 222.552C370.131 222.55 370.131 222.548 370.131 222.546C370.131 222.544 370.131 222.542 370.131 222.54C370.131 222.538 370.131 222.536 370.131 222.534C370.131 222.531 370.131 222.529 370.131 222.527C370.131 222.525 370.131 222.523 370.131 222.521C370.131 222.519 370.131 222.517 370.131 222.515C370.131 222.513 370.131 222.511 370.131 222.509C370.131 222.507 370.131 222.505 370.131 222.503C370.131 222.501 370.131 222.499 370.131 222.497C370.131 222.495 370.131 222.493 370.131 222.49C370.131 222.488 370.131 222.486 370.131 222.484C370.131 222.482 370.131 222.48 370.131 222.478C370.131 222.476 370.131 222.474 370.131 222.472C370.131 222.47 370.131 222.468 370.131 222.466C370.131 222.464 370.131 222.462 370.131 222.46C370.131 222.458 370.131 222.456 370.131 222.454C370.131 222.452 370.131 222.45 370.131 222.448C370.131 222.446 370.131 222.444 370.131 222.442C370.131 222.44 370.131 222.438 370.131 222.436C370.131 222.433 370.131 222.431 370.131 222.429C370.131 222.427 370.131 222.425 370.131 222.423C370.131 222.421 370.131 222.419 370.131 222.417C370.131 222.415 370.131 222.413 370.131 222.411C370.131 222.409 370.131 222.407 370.131 222.405C370.131 222.403 370.131 222.401 370.131 222.399C370.131 222.397 370.131 222.395 370.131 222.393C370.131 222.391 370.131 222.389 370.131 222.387C370.131 222.385 370.131 222.383 370.131 222.381C370.131 222.379 370.131 222.377 370.131 222.375C370.131 222.373 370.131 222.371 370.131 222.369C370.131 222.367 370.131 222.365 370.131 222.363C370.131 222.361 370.131 222.359 370.131 222.357C370.131 222.355 370.131 222.353 370.131 222.351C370.131 222.349 370.131 222.347 370.131 222.345C370.131 222.343 370.131 222.341 370.131 222.339C370.131 222.337 370.131 222.335 370.131 222.333C370.131 222.331 370.131 222.329 370.131 222.327C370.131 222.325 370.131 222.323 370.131 222.321C370.131 222.319 370.131 222.317 370.131 222.315C370.131 222.313 370.131 222.311 370.131 222.309C370.131 222.307 370.131 222.305 370.131 222.303C370.131 222.301 370.131 222.299 370.131 222.297C370.131 222.295 370.131 222.293 370.131 222.291C370.131 222.289 370.131 222.287 370.131 222.285C370.131 222.283 370.131 222.281 370.131 222.279C370.131 222.277 370.131 222.275 370.131 222.273C370.131 222.271 370.131 222.269 370.131 222.267C370.131 222.266 370.131 222.264 370.131 222.262C370.131 222.26 370.131 222.258 370.131 222.256C370.131 222.254 370.131 222.252 370.131 222.25C370.131 222.248 370.131 222.246 370.131 222.244C370.131 222.242 370.131 222.24 370.131 222.238C370.131 222.236 370.131 222.234 370.131 222.232C370.131 222.23 370.131 222.228 370.131 222.226C370.131 222.224 370.131 222.222 370.131 222.22C370.131 222.218 370.131 222.216 370.131 222.214C370.131 222.212 370.131 222.211 370.131 222.209C370.131 222.207 370.131 222.205 370.131 222.203C370.131 222.201 370.131 222.199 370.131 222.197C370.131 222.195 370.131 222.193 370.131 222.191C370.131 222.189 370.131 222.187 370.131 222.185C370.131 222.183 370.131 222.181 370.131 222.179C370.131 222.177 370.131 222.175 370.131 222.174C370.131 222.172 370.131 222.17 370.131 222.168C370.131 222.166 370.131 222.164 370.131 222.162C370.131 222.16 370.131 222.158 370.131 222.156C370.131 222.154 370.131 222.152 370.131 222.15C370.131 222.148 370.131 222.146 370.131 222.144C370.131 222.143 370.131 222.141 370.131 222.139C370.131 222.137 370.131 222.135 370.131 222.133C370.131 222.131 370.131 222.129 370.131 222.127C370.131 222.125 370.131 222.123 370.131 222.121C370.131 222.119 370.131 222.117 370.131 222.116C370.131 222.114 370.131 222.112 370.131 222.11C370.131 222.108 370.131 222.106 370.131 222.104C370.131 222.102 370.131 222.1 370.131 222.098C370.131 222.096 370.131 222.094 370.131 222.093C370.131 222.091 370.131 222.089 370.131 222.087C370.131 222.085 370.131 222.083 370.131 222.081C370.131 222.079 370.131 222.077 370.131 222.075C370.131 222.073 370.131 222.072 370.131 222.07C370.131 222.068 370.131 222.066 370.131 222.064C370.131 222.062 370.131 222.06 370.131 222.058C370.131 222.056 370.131 222.054 370.131 222.052C370.131 222.051 370.131 222.049 370.131 222.047C370.131 222.045 370.131 222.043 370.131 222.041C370.131 222.039 370.131 222.037 370.131 222.035C370.131 222.033 370.131 222.032 370.131 222.03C370.131 222.028 370.131 222.026 370.131 222.024C370.131 222.022 370.131 222.02 370.131 222.018C370.131 222.016 370.131 222.015 370.131 222.013C370.131 222.011 370.131 222.009 370.131 222.007C370.131 222.005 370.131 222.003 370.131 222.001C370.131 221.999 370.131 221.998 370.131 221.996C370.131 221.994 370.131 221.992 370.131 221.99C370.131 221.988 370.131 221.986 370.131 221.984C370.131 221.983 370.131 221.981 370.131 221.979C370.131 221.977 370.131 221.975 370.131 221.973C370.131 221.971 370.131 221.969 370.131 221.968C370.131 221.966 370.131 221.964 370.131 221.962C370.131 221.96 370.131 221.958 370.131 221.956C370.131 221.954 370.131 221.953 370.131 221.951C370.131 221.949 370.131 221.947 370.131 221.945C370.131 221.943 370.131 221.941 370.131 221.94C370.131 221.938 370.131 221.936 370.131 221.934C370.131 221.932 370.131 221.93 370.131 221.928C370.131 221.927 370.131 221.925 370.131 221.923C370.131 221.921 370.131 221.919 370.131 221.917C370.131 221.915 370.131 221.914 370.131 221.912C370.131 221.91 370.131 221.908 370.131 221.906C370.131 221.904 370.131 221.902 370.131 221.901C370.131 221.899 370.131 221.897 370.131 221.895C370.131 221.893 370.131 221.891 370.131 221.89C370.131 221.888 370.131 221.886 370.131 221.884C370.131 221.882 370.131 221.88 370.131 221.878C370.131 221.877 370.131 221.875 370.131 221.873C370.131 221.871 370.131 221.869 370.131 221.867C370.131 221.866 370.131 221.864 370.131 221.862C370.131 221.86 370.131 221.858 370.131 221.856C370.131 221.855 370.131 221.853 370.131 221.851C370.131 221.849 370.131 221.847 370.131 221.845C370.131 221.844 370.131 221.842 370.131 221.84C370.131 221.838 370.131 221.836 370.131 221.834C370.131 221.833 370.131 221.831 370.131 221.829C370.131 221.827 370.131 221.825 370.131 221.823C370.131 221.822 370.131 221.82 370.131 221.818C370.131 221.816 370.131 221.814 370.131 221.813C370.131 221.811 370.131 221.809 370.131 221.807C370.131 221.805 370.131 221.803 370.131 221.802C370.131 221.8 370.131 221.798 370.131 221.796C370.131 221.794 370.131 221.793 370.131 221.791C370.131 221.789 370.131 221.787 370.131 221.785C370.131 221.784 370.131 221.782 370.131 221.78C370.131 221.778 370.131 221.776 370.131 221.775C370.131 221.773 370.131 221.771 370.131 221.769C370.131 221.767 370.131 221.766 370.131 221.764C370.131 221.762 370.131 221.76 370.131 221.758C370.131 221.757 370.131 221.755 370.131 221.753C370.131 221.751 370.131 221.749 370.131 221.748C370.131 221.746 370.131 221.744 370.131 221.742C370.131 221.74 370.131 221.739 370.131 221.737C370.131 221.735 370.131 221.733 370.131 221.731C370.131 221.73 370.131 221.728 370.131 221.726C370.131 221.724 370.131 221.722 370.131 221.721C370.131 221.719 370.131 221.717 370.131 221.715C370.131 221.714 370.131 221.712 370.131 221.71C370.131 221.708 370.131 221.706 370.131 221.705C370.131 221.703 370.131 221.701 370.131 221.699C370.131 221.698 370.131 221.696 370.131 221.694C370.131 221.692 370.131 221.69 370.131 221.689C370.131 221.687 370.131 221.685 370.131 221.683C370.131 221.682 370.131 221.68 370.131 221.678C370.131 221.676 370.131 221.675 370.131 221.673C370.131 221.671 370.131 221.669 370.131 221.667C370.131 221.666 370.131 221.664 370.131 221.662C370.131 221.66 370.131 221.659 370.131 221.657C370.131 221.655 370.131 221.653 370.131 221.652C370.131 221.65 370.131 221.648 370.131 221.646C370.131 221.645 370.131 221.643 370.131 221.641C370.131 221.639 370.131 221.638 370.131 221.636C370.131 221.634 370.131 221.632 370.131 221.631C370.131 221.629 370.131 221.627 370.131 221.625C370.131 221.624 370.131 221.622 370.131 221.62C370.131 221.618 370.131 221.617 370.131 221.615C370.131 221.613 370.131 221.611 370.131 221.61C370.131 221.608 370.131 221.606 370.131 221.604C370.131 221.603 370.131 221.601 370.131 221.599C370.131 221.597 370.131 221.596 370.131 221.594C370.131 221.592 370.131 221.59 370.131 221.589C370.131 221.587 370.131 221.585 370.131 221.583C370.131 221.582 370.131 221.58 370.131 221.578C370.131 221.577 370.131 221.575 370.131 221.573C370.131 221.571 370.131 221.57 370.131 221.568C370.131 221.566 370.131 221.564 370.131 221.563C370.131 221.561 370.131 221.559 370.131 221.558C370.131 221.556 370.131 221.554 370.131 221.552C370.131 221.551 370.131 221.549 370.131 221.547C370.131 221.545 370.131 221.544 370.131 221.542C370.131 221.54 370.131 221.539 370.131 221.537C370.131 221.535 370.131 221.533 370.131 221.532C370.131 221.53 370.131 221.528 370.131 221.527C370.131 221.525 370.131 221.523 370.131 221.521C370.131 221.52 370.131 221.518 370.131 221.516C370.131 221.515 370.131 221.513 370.131 221.511C370.131 221.509 370.131 221.508 370.131 221.506C370.131 221.504 370.131 221.503 370.131 221.501C370.131 221.499 370.131 221.498 370.131 221.496C370.131 221.494 370.131 221.492 370.131 221.491C370.131 221.489 370.131 221.487 370.131 221.486C370.131 221.484 370.131 221.482 370.131 221.481C370.131 221.479 370.131 221.477 370.131 221.475C370.131 221.474 370.131 221.472 370.131 221.47C370.131 221.469 370.131 221.467 370.131 221.465C370.131 221.464 370.131 221.462 370.131 221.46C370.131 221.459 370.131 221.457 370.131 221.455C370.131 221.453 370.131 221.452 370.131 221.45C370.131 221.448 370.131 221.447 370.131 221.445C370.131 221.443 370.131 221.442 370.131 221.44C370.131 221.438 370.131 221.437 370.131 221.435C370.131 221.433 370.131 221.432 370.131 221.43C370.131 221.428 370.131 221.427 370.131 221.425C370.131 221.423 370.131 221.422 370.131 221.42C370.131 221.418 370.131 221.417 370.131 221.415C370.131 221.413 370.131 221.412 370.131 221.41C370.131 221.408 370.131 221.407 370.131 221.405C370.131 221.403 370.131 221.402 370.131 221.4C370.131 221.398 370.131 221.397 370.131 221.395C370.131 221.393 370.131 221.392 370.131 221.39C370.131 221.388 370.131 221.387 370.131 221.385C370.131 221.383 370.131 221.382 370.131 221.38C370.131 221.378 370.131 221.377 370.131 221.375C370.131 221.373 370.131 221.372 370.131 221.37C370.131 221.368 370.131 221.367 370.131 221.365C370.131 221.363 370.131 221.362 370.131 221.36C370.131 221.358 370.131 221.357 370.131 221.355C370.131 221.354 370.131 221.352 370.131 221.35C370.131 221.349 370.131 221.347 370.131 221.345C370.131 221.344 370.131 221.342 370.131 221.34C370.131 221.339 370.131 221.337 370.131 221.335C370.131 221.334 370.131 221.332 370.131 221.331C370.131 221.329 370.131 221.327 370.131 221.326C370.131 221.324 370.131 221.322 370.131 221.321C370.131 221.319 370.131 221.317 370.131 221.316C370.131 221.314 370.131 221.313 370.131 221.311C370.131 221.309 370.131 221.308 370.131 221.306C370.131 221.304 370.131 221.303 370.131 221.301C370.131 221.3 370.131 221.298 370.131 221.296C370.131 221.295 370.131 221.293 370.131 221.291C370.131 221.29 370.131 221.288 370.131 221.287C370.131 221.285 370.131 221.283 370.131 221.282C370.131 221.28 370.131 221.278 370.131 221.277C370.131 221.275 370.131 221.274 370.131 221.272C370.131 221.27 370.131 221.269 370.131 221.267C370.131 221.266 370.131 221.264 370.131 221.262C370.131 221.261 370.131 221.259 370.131 221.258C370.131 221.256 370.131 221.254 370.131 221.253C370.131 221.251 370.131 221.249 370.131 221.248C370.131 221.246 370.131 221.245 370.131 221.243C370.131 221.241 370.131 221.24 370.131 221.238C370.131 221.237 370.131 221.235 370.131 221.233C370.131 221.232 370.131 221.23 370.131 221.229C370.131 221.227 370.131 221.225 370.131 221.224C370.131 221.222 370.131 221.221 370.131 221.219C370.131 221.217 370.131 221.216 370.131 221.214C370.131 221.213 370.131 221.211 370.131 221.21C370.131 221.208 370.131 221.206 370.131 221.205C370.131 221.203 370.131 221.202 370.131 221.2C370.131 221.198 370.131 221.197 370.131 221.195C370.131 221.194 370.131 221.192 370.131 221.191C370.131 221.189 370.131 221.187 370.131 221.186C370.131 221.184 370.131 221.183 370.131 221.181C370.131 221.179 370.131 221.178 370.131 221.176C370.131 221.175 370.131 221.173 370.131 221.172C370.131 221.17 370.131 221.168 370.131 221.167C370.131 221.165 370.131 221.164 370.131 221.162C370.131 221.161 370.131 221.159 370.131 221.157C370.131 221.156 370.131 221.154 370.131 221.153C370.131 221.151 370.131 221.15 370.131 221.148C370.131 221.146 370.131 221.145 370.131 221.143C370.131 221.142 370.131 221.14 370.131 221.139C370.131 221.137 370.131 221.136 370.131 221.134C370.131 221.132 370.131 221.131 370.131 221.129C370.131 221.128 370.131 221.126 370.131 221.125C370.131 221.123 370.131 221.122 370.131 221.12C370.131 221.118 370.131 221.117 370.131 221.115C370.131 221.114 370.131 221.112 370.131 221.111C370.131 221.109 370.131 221.108 370.131 221.106C370.131 221.105 370.131 221.103 370.131 221.101C370.131 221.1 370.131 221.098 370.131 221.097C370.131 221.095 370.131 221.094 370.131 221.092C370.131 221.091 370.131 221.089 370.131 221.088C370.131 221.086 370.131 221.084 370.131 221.083C370.131 221.081 370.131 221.08 370.131 221.078C370.131 221.077 370.131 221.075 370.131 221.074C370.131 221.072 370.131 221.071 370.131 221.069C370.131 221.068 370.131 221.066 370.131 221.065C370.131 221.063 370.131 221.061 370.131 221.06C370.131 221.058 370.131 221.057 370.131 221.055C370.131 221.054 370.131 221.052 370.131 221.051C370.131 221.049 370.131 221.048 370.131 221.046C370.131 221.045 370.131 221.043 370.131 221.042C370.131 221.04 370.131 221.039 370.131 221.037C370.131 221.036 370.131 221.034 370.131 221.033C370.131 221.031 370.131 221.03 370.131 221.028C370.131 221.027 370.131 221.025 370.131 221.024C370.131 221.022 370.131 221.02 370.131 221.019C370.131 221.017 370.131 221.016 370.131 221.014C370.131 221.013 370.131 221.011 370.131 221.01C370.131 221.008 370.131 221.007 370.131 221.005C370.131 221.004 370.131 221.002 370.131 221.001C370.131 220.999 370.131 220.998 370.131 220.996C370.131 220.995 370.131 220.993 370.131 220.992C370.131 220.99 370.131 220.989 370.131 220.987C370.131 220.986 370.131 220.984 370.131 220.983C370.131 220.981 370.131 220.98 370.131 220.978C370.131 220.977 370.131 220.975 370.131 220.974C370.131 220.972 370.131 220.971 370.131 220.97C370.131 220.968 370.131 220.967 370.131 220.965C370.131 220.964 370.131 220.962 370.131 220.961C370.131 220.959 370.131 220.958 370.131 220.956C370.131 220.955 370.131 220.953 370.131 220.952C370.131 220.95 370.131 220.949 370.131 220.947C370.131 220.946 370.131 220.944 370.131 220.943C370.131 220.941 370.131 220.94 370.131 220.938C370.131 220.937 370.131 220.935 370.131 220.934C370.131 220.932 370.131 220.931 370.131 220.93C370.131 220.928 370.131 220.927 370.131 220.925C370.131 220.924 370.131 220.922 370.131 220.921C370.131 220.919 370.131 220.918 370.131 220.916C370.131 220.915 370.131 220.913 370.131 220.912C370.131 220.91 370.131 220.909 370.131 220.908C370.131 220.906 370.131 220.905 370.131 220.903C370.131 220.902 370.131 220.9 370.131 220.899C370.131 220.897 370.131 220.896 370.131 220.894C370.131 220.893 370.131 220.892 370.131 220.89C370.131 220.889 370.131 220.887 370.131 220.886C370.131 220.884 370.131 220.883 370.131 220.881C370.131 220.88 370.131 220.878 370.131 220.877C370.131 220.876 370.131 220.874 370.131 220.873C370.131 220.871 370.131 220.87 370.131 220.868C370.131 220.867 370.131 220.865 370.131 220.864C370.131 220.863 370.131 220.861 370.131 220.86C370.131 220.858 370.131 220.857 370.131 220.855C370.131 220.854 370.131 220.853 370.131 220.851C370.131 220.85 370.131 220.848 370.131 220.847C370.131 220.845 370.131 220.844 370.131 220.842C370.131 220.841 370.131 220.84 370.131 220.838C370.131 220.837 370.131 220.835 370.131 220.834C370.131 220.832 370.131 220.831 370.131 220.83C370.131 220.828 370.131 220.827 370.131 220.825C370.131 220.824 370.131 220.822 370.131 220.821C370.131 220.82 370.131 220.818 370.131 220.817C370.131 220.815 370.131 220.814 370.131 220.813C370.131 220.811 370.131 220.81 370.131 220.808C370.131 220.807 370.131 220.805 370.131 220.804C370.131 220.803 370.131 220.801 370.131 220.8H368.131C368.131 220.801 368.131 220.803 368.131 220.804C368.131 220.805 368.131 220.807 368.131 220.808C368.131 220.81 368.131 220.811 368.131 220.813C368.131 220.814 368.131 220.815 368.131 220.817C368.131 220.818 368.131 220.82 368.131 220.821C368.131 220.822 368.131 220.824 368.131 220.825C368.131 220.827 368.131 220.828 368.131 220.83C368.131 220.831 368.131 220.832 368.131 220.834C368.131 220.835 368.131 220.837 368.131 220.838C368.131 220.84 368.131 220.841 368.131 220.842C368.131 220.844 368.131 220.845 368.131 220.847C368.131 220.848 368.131 220.85 368.131 220.851C368.131 220.853 368.131 220.854 368.131 220.855C368.131 220.857 368.131 220.858 368.131 220.86C368.131 220.861 368.131 220.863 368.131 220.864C368.131 220.865 368.131 220.867 368.131 220.868C368.131 220.87 368.131 220.871 368.131 220.873C368.131 220.874 368.131 220.876 368.131 220.877C368.131 220.878 368.131 220.88 368.131 220.881C368.131 220.883 368.131 220.884 368.131 220.886C368.131 220.887 368.131 220.889 368.131 220.89C368.131 220.892 368.131 220.893 368.131 220.894C368.131 220.896 368.131 220.897 368.131 220.899C368.131 220.9 368.131 220.902 368.131 220.903C368.131 220.905 368.131 220.906 368.131 220.908C368.131 220.909 368.131 220.91 368.131 220.912C368.131 220.913 368.131 220.915 368.131 220.916C368.131 220.918 368.131 220.919 368.131 220.921C368.131 220.922 368.131 220.924 368.131 220.925C368.131 220.927 368.131 220.928 368.131 220.93C368.131 220.931 368.131 220.932 368.131 220.934C368.131 220.935 368.131 220.937 368.131 220.938C368.131 220.94 368.131 220.941 368.131 220.943C368.131 220.944 368.131 220.946 368.131 220.947C368.131 220.949 368.131 220.95 368.131 220.952C368.131 220.953 368.131 220.955 368.131 220.956C368.131 220.958 368.131 220.959 368.131 220.961C368.131 220.962 368.131 220.964 368.131 220.965C368.131 220.967 368.131 220.968 368.131 220.97C368.131 220.971 368.131 220.972 368.131 220.974C368.131 220.975 368.131 220.977 368.131 220.978C368.131 220.98 368.131 220.981 368.131 220.983C368.131 220.984 368.131 220.986 368.131 220.987C368.131 220.989 368.131 220.99 368.131 220.992C368.131 220.993 368.131 220.995 368.131 220.996C368.131 220.998 368.131 220.999 368.131 221.001C368.131 221.002 368.131 221.004 368.131 221.005C368.131 221.007 368.131 221.008 368.131 221.01C368.131 221.011 368.131 221.013 368.131 221.014C368.131 221.016 368.131 221.017 368.131 221.019C368.131 221.02 368.131 221.022 368.131 221.024C368.131 221.025 368.131 221.027 368.131 221.028C368.131 221.03 368.131 221.031 368.131 221.033C368.131 221.034 368.131 221.036 368.131 221.037C368.131 221.039 368.131 221.04 368.131 221.042C368.131 221.043 368.131 221.045 368.131 221.046C368.131 221.048 368.131 221.049 368.131 221.051C368.131 221.052 368.131 221.054 368.131 221.055C368.131 221.057 368.131 221.058 368.131 221.06C368.131 221.061 368.131 221.063 368.131 221.065C368.131 221.066 368.131 221.068 368.131 221.069C368.131 221.071 368.131 221.072 368.131 221.074C368.131 221.075 368.131 221.077 368.131 221.078C368.131 221.08 368.131 221.081 368.131 221.083C368.131 221.084 368.131 221.086 368.131 221.088C368.131 221.089 368.131 221.091 368.131 221.092C368.131 221.094 368.131 221.095 368.131 221.097C368.131 221.098 368.131 221.1 368.131 221.101C368.131 221.103 368.131 221.105 368.131 221.106C368.131 221.108 368.131 221.109 368.131 221.111C368.131 221.112 368.131 221.114 368.131 221.115C368.131 221.117 368.131 221.118 368.131 221.12C368.131 221.122 368.131 221.123 368.131 221.125C368.131 221.126 368.131 221.128 368.131 221.129C368.131 221.131 368.131 221.132 368.131 221.134C368.131 221.136 368.131 221.137 368.131 221.139C368.131 221.14 368.131 221.142 368.131 221.143C368.131 221.145 368.131 221.146 368.131 221.148C368.131 221.15 368.131 221.151 368.131 221.153C368.131 221.154 368.131 221.156 368.131 221.157C368.131 221.159 368.131 221.161 368.131 221.162C368.131 221.164 368.131 221.165 368.131 221.167C368.131 221.168 368.131 221.17 368.131 221.172C368.131 221.173 368.131 221.175 368.131 221.176C368.131 221.178 368.131 221.179 368.131 221.181C368.131 221.183 368.131 221.184 368.131 221.186C368.131 221.187 368.131 221.189 368.131 221.191C368.131 221.192 368.131 221.194 368.131 221.195C368.131 221.197 368.131 221.198 368.131 221.2C368.131 221.202 368.131 221.203 368.131 221.205C368.131 221.206 368.131 221.208 368.131 221.21C368.131 221.211 368.131 221.213 368.131 221.214C368.131 221.216 368.131 221.217 368.131 221.219C368.131 221.221 368.131 221.222 368.131 221.224C368.131 221.225 368.131 221.227 368.131 221.229C368.131 221.23 368.131 221.232 368.131 221.233C368.131 221.235 368.131 221.237 368.131 221.238C368.131 221.24 368.131 221.241 368.131 221.243C368.131 221.245 368.131 221.246 368.131 221.248C368.131 221.249 368.131 221.251 368.131 221.253C368.131 221.254 368.131 221.256 368.131 221.258C368.131 221.259 368.131 221.261 368.131 221.262C368.131 221.264 368.131 221.266 368.131 221.267C368.131 221.269 368.131 221.27 368.131 221.272C368.131 221.274 368.131 221.275 368.131 221.277C368.131 221.278 368.131 221.28 368.131 221.282C368.131 221.283 368.131 221.285 368.131 221.287C368.131 221.288 368.131 221.29 368.131 221.291C368.131 221.293 368.131 221.295 368.131 221.296C368.131 221.298 368.131 221.3 368.131 221.301C368.131 221.303 368.131 221.304 368.131 221.306C368.131 221.308 368.131 221.309 368.131 221.311C368.131 221.313 368.131 221.314 368.131 221.316C368.131 221.317 368.131 221.319 368.131 221.321C368.131 221.322 368.131 221.324 368.131 221.326C368.131 221.327 368.131 221.329 368.131 221.331C368.131 221.332 368.131 221.334 368.131 221.335C368.131 221.337 368.131 221.339 368.131 221.34C368.131 221.342 368.131 221.344 368.131 221.345C368.131 221.347 368.131 221.349 368.131 221.35C368.131 221.352 368.131 221.354 368.131 221.355C368.131 221.357 368.131 221.358 368.131 221.36C368.131 221.362 368.131 221.363 368.131 221.365C368.131 221.367 368.131 221.368 368.131 221.37C368.131 221.372 368.131 221.373 368.131 221.375C368.131 221.377 368.131 221.378 368.131 221.38C368.131 221.382 368.131 221.383 368.131 221.385C368.131 221.387 368.131 221.388 368.131 221.39C368.131 221.392 368.131 221.393 368.131 221.395C368.131 221.397 368.131 221.398 368.131 221.4C368.131 221.402 368.131 221.403 368.131 221.405C368.131 221.407 368.131 221.408 368.131 221.41C368.131 221.412 368.131 221.413 368.131 221.415C368.131 221.417 368.131 221.418 368.131 221.42C368.131 221.422 368.131 221.423 368.131 221.425C368.131 221.427 368.131 221.428 368.131 221.43C368.131 221.432 368.131 221.433 368.131 221.435C368.131 221.437 368.131 221.438 368.131 221.44C368.131 221.442 368.131 221.443 368.131 221.445C368.131 221.447 368.131 221.448 368.131 221.45C368.131 221.452 368.131 221.453 368.131 221.455C368.131 221.457 368.131 221.459 368.131 221.46C368.131 221.462 368.131 221.464 368.131 221.465C368.131 221.467 368.131 221.469 368.131 221.47C368.131 221.472 368.131 221.474 368.131 221.475C368.131 221.477 368.131 221.479 368.131 221.481C368.131 221.482 368.131 221.484 368.131 221.486C368.131 221.487 368.131 221.489 368.131 221.491C368.131 221.492 368.131 221.494 368.131 221.496C368.131 221.498 368.131 221.499 368.131 221.501C368.131 221.503 368.131 221.504 368.131 221.506C368.131 221.508 368.131 221.509 368.131 221.511C368.131 221.513 368.131 221.515 368.131 221.516C368.131 221.518 368.131 221.52 368.131 221.521C368.131 221.523 368.131 221.525 368.131 221.527C368.131 221.528 368.131 221.53 368.131 221.532C368.131 221.533 368.131 221.535 368.131 221.537C368.131 221.539 368.131 221.54 368.131 221.542C368.131 221.544 368.131 221.545 368.131 221.547C368.131 221.549 368.131 221.551 368.131 221.552C368.131 221.554 368.131 221.556 368.131 221.558C368.131 221.559 368.131 221.561 368.131 221.563C368.131 221.564 368.131 221.566 368.131 221.568C368.131 221.57 368.131 221.571 368.131 221.573C368.131 221.575 368.131 221.577 368.131 221.578C368.131 221.58 368.131 221.582 368.131 221.583C368.131 221.585 368.131 221.587 368.131 221.589C368.131 221.59 368.131 221.592 368.131 221.594C368.131 221.596 368.131 221.597 368.131 221.599C368.131 221.601 368.131 221.603 368.131 221.604C368.131 221.606 368.131 221.608 368.131 221.61C368.131 221.611 368.131 221.613 368.131 221.615C368.131 221.617 368.131 221.618 368.131 221.62C368.131 221.622 368.131 221.624 368.131 221.625C368.131 221.627 368.131 221.629 368.131 221.631C368.131 221.632 368.131 221.634 368.131 221.636C368.131 221.638 368.131 221.639 368.131 221.641C368.131 221.643 368.131 221.645 368.131 221.646C368.131 221.648 368.131 221.65 368.131 221.652C368.131 221.653 368.131 221.655 368.131 221.657C368.131 221.659 368.131 221.66 368.131 221.662C368.131 221.664 368.131 221.666 368.131 221.667C368.131 221.669 368.131 221.671 368.131 221.673C368.131 221.675 368.131 221.676 368.131 221.678C368.131 221.68 368.131 221.682 368.131 221.683C368.131 221.685 368.131 221.687 368.131 221.689C368.131 221.69 368.131 221.692 368.131 221.694C368.131 221.696 368.131 221.698 368.131 221.699C368.131 221.701 368.131 221.703 368.131 221.705C368.131 221.706 368.131 221.708 368.131 221.71C368.131 221.712 368.131 221.714 368.131 221.715C368.131 221.717 368.131 221.719 368.131 221.721C368.131 221.722 368.131 221.724 368.131 221.726C368.131 221.728 368.131 221.73 368.131 221.731C368.131 221.733 368.131 221.735 368.131 221.737C368.131 221.739 368.131 221.74 368.131 221.742C368.131 221.744 368.131 221.746 368.131 221.748C368.131 221.749 368.131 221.751 368.131 221.753C368.131 221.755 368.131 221.757 368.131 221.758C368.131 221.76 368.131 221.762 368.131 221.764C368.131 221.766 368.131 221.767 368.131 221.769C368.131 221.771 368.131 221.773 368.131 221.775C368.131 221.776 368.131 221.778 368.131 221.78C368.131 221.782 368.131 221.784 368.131 221.785C368.131 221.787 368.131 221.789 368.131 221.791C368.131 221.793 368.131 221.794 368.131 221.796C368.131 221.798 368.131 221.8 368.131 221.802C368.131 221.803 368.131 221.805 368.131 221.807C368.131 221.809 368.131 221.811 368.131 221.813C368.131 221.814 368.131 221.816 368.131 221.818C368.131 221.82 368.131 221.822 368.131 221.823C368.131 221.825 368.131 221.827 368.131 221.829C368.131 221.831 368.131 221.833 368.131 221.834C368.131 221.836 368.131 221.838 368.131 221.84C368.131 221.842 368.131 221.844 368.131 221.845C368.131 221.847 368.131 221.849 368.131 221.851C368.131 221.853 368.131 221.855 368.131 221.856C368.131 221.858 368.131 221.86 368.131 221.862C368.131 221.864 368.131 221.866 368.131 221.867C368.131 221.869 368.131 221.871 368.131 221.873C368.131 221.875 368.131 221.877 368.131 221.878C368.131 221.88 368.131 221.882 368.131 221.884C368.131 221.886 368.131 221.888 368.131 221.89C368.131 221.891 368.131 221.893 368.131 221.895C368.131 221.897 368.131 221.899 368.131 221.901C368.131 221.902 368.131 221.904 368.131 221.906C368.131 221.908 368.131 221.91 368.131 221.912C368.131 221.914 368.131 221.915 368.131 221.917C368.131 221.919 368.131 221.921 368.131 221.923C368.131 221.925 368.131 221.927 368.131 221.928C368.131 221.93 368.131 221.932 368.131 221.934C368.131 221.936 368.131 221.938 368.131 221.94C368.131 221.941 368.131 221.943 368.131 221.945C368.131 221.947 368.131 221.949 368.131 221.951C368.131 221.953 368.131 221.954 368.131 221.956C368.131 221.958 368.131 221.96 368.131 221.962C368.131 221.964 368.131 221.966 368.131 221.968C368.131 221.969 368.131 221.971 368.131 221.973C368.131 221.975 368.131 221.977 368.131 221.979C368.131 221.981 368.131 221.983 368.131 221.984C368.131 221.986 368.131 221.988 368.131 221.99C368.131 221.992 368.131 221.994 368.131 221.996C368.131 221.998 368.131 221.999 368.131 222.001C368.131 222.003 368.131 222.005 368.131 222.007C368.131 222.009 368.131 222.011 368.131 222.013C368.131 222.015 368.131 222.016 368.131 222.018C368.131 222.02 368.131 222.022 368.131 222.024C368.131 222.026 368.131 222.028 368.131 222.03C368.131 222.032 368.131 222.033 368.131 222.035C368.131 222.037 368.131 222.039 368.131 222.041C368.131 222.043 368.131 222.045 368.131 222.047C368.131 222.049 368.131 222.051 368.131 222.052C368.131 222.054 368.131 222.056 368.131 222.058C368.131 222.06 368.131 222.062 368.131 222.064C368.131 222.066 368.131 222.068 368.131 222.07C368.131 222.072 368.131 222.073 368.131 222.075C368.131 222.077 368.131 222.079 368.131 222.081C368.131 222.083 368.131 222.085 368.131 222.087C368.131 222.089 368.131 222.091 368.131 222.093C368.131 222.094 368.131 222.096 368.131 222.098C368.131 222.1 368.131 222.102 368.131 222.104C368.131 222.106 368.131 222.108 368.131 222.11C368.131 222.112 368.131 222.114 368.131 222.116C368.131 222.117 368.131 222.119 368.131 222.121C368.131 222.123 368.131 222.125 368.131 222.127C368.131 222.129 368.131 222.131 368.131 222.133C368.131 222.135 368.131 222.137 368.131 222.139C368.131 222.141 368.131 222.143 368.131 222.144C368.131 222.146 368.131 222.148 368.131 222.15C368.131 222.152 368.131 222.154 368.131 222.156C368.131 222.158 368.131 222.16 368.131 222.162C368.131 222.164 368.131 222.166 368.131 222.168C368.131 222.17 368.131 222.172 368.131 222.174C368.131 222.175 368.131 222.177 368.131 222.179C368.131 222.181 368.131 222.183 368.131 222.185C368.131 222.187 368.131 222.189 368.131 222.191C368.131 222.193 368.131 222.195 368.131 222.197C368.131 222.199 368.131 222.201 368.131 222.203C368.131 222.205 368.131 222.207 368.131 222.209C368.131 222.211 368.131 222.212 368.131 222.214C368.131 222.216 368.131 222.218 368.131 222.22C368.131 222.222 368.131 222.224 368.131 222.226C368.131 222.228 368.131 222.23 368.131 222.232C368.131 222.234 368.131 222.236 368.131 222.238C368.131 222.24 368.131 222.242 368.131 222.244C368.131 222.246 368.131 222.248 368.131 222.25C368.131 222.252 368.131 222.254 368.131 222.256C368.131 222.258 368.131 222.26 368.131 222.262C368.131 222.264 368.131 222.266 368.131 222.267C368.131 222.269 368.131 222.271 368.131 222.273C368.131 222.275 368.131 222.277 368.131 222.279C368.131 222.281 368.131 222.283 368.131 222.285C368.131 222.287 368.131 222.289 368.131 222.291C368.131 222.293 368.131 222.295 368.131 222.297C368.131 222.299 368.131 222.301 368.131 222.303C368.131 222.305 368.131 222.307 368.131 222.309C368.131 222.311 368.131 222.313 368.131 222.315C368.131 222.317 368.131 222.319 368.131 222.321C368.131 222.323 368.131 222.325 368.131 222.327C368.131 222.329 368.131 222.331 368.131 222.333C368.131 222.335 368.131 222.337 368.131 222.339C368.131 222.341 368.131 222.343 368.131 222.345C368.131 222.347 368.131 222.349 368.131 222.351C368.131 222.353 368.131 222.355 368.131 222.357C368.131 222.359 368.131 222.361 368.131 222.363C368.131 222.365 368.131 222.367 368.131 222.369C368.131 222.371 368.131 222.373 368.131 222.375C368.131 222.377 368.131 222.379 368.131 222.381C368.131 222.383 368.131 222.385 368.131 222.387C368.131 222.389 368.131 222.391 368.131 222.393C368.131 222.395 368.131 222.397 368.131 222.399C368.131 222.401 368.131 222.403 368.131 222.405C368.131 222.407 368.131 222.409 368.131 222.411C368.131 222.413 368.131 222.415 368.131 222.417C368.131 222.419 368.131 222.421 368.131 222.423C368.131 222.425 368.131 222.427 368.131 222.429C368.131 222.431 368.131 222.433 368.131 222.436C368.131 222.438 368.131 222.44 368.131 222.442C368.131 222.444 368.131 222.446 368.131 222.448C368.131 222.45 368.131 222.452 368.131 222.454C368.131 222.456 368.131 222.458 368.131 222.46C368.131 222.462 368.131 222.464 368.131 222.466C368.131 222.468 368.131 222.47 368.131 222.472C368.131 222.474 368.131 222.476 368.131 222.478C368.131 222.48 368.131 222.482 368.131 222.484C368.131 222.486 368.131 222.488 368.131 222.49C368.131 222.493 368.131 222.495 368.131 222.497C368.131 222.499 368.131 222.501 368.131 222.503C368.131 222.505 368.131 222.507 368.131 222.509C368.131 222.511 368.131 222.513 368.131 222.515C368.131 222.517 368.131 222.519 368.131 222.521C368.131 222.523 368.131 222.525 368.131 222.527C368.131 222.529 368.131 222.531 368.131 222.534C368.131 222.536 368.131 222.538 368.131 222.54C368.131 222.542 368.131 222.544 368.131 222.546C368.131 222.548 368.131 222.55 368.131 222.552C368.131 222.554 368.131 222.556 368.131 222.558C368.131 222.56 368.131 222.562 368.131 222.565C368.131 222.567 368.131 222.569 368.131 222.571C368.131 222.573 368.131 222.575 368.131 222.577C368.131 222.579 368.131 222.581 368.131 222.583C368.131 222.585 368.131 222.587 368.131 222.589C368.131 222.591 368.131 222.594 368.131 222.596C368.131 222.598 368.131 222.6 368.131 222.602C368.131 222.604 368.131 222.606 368.131 222.608C368.131 222.61 368.131 222.612 368.131 222.614C368.131 222.616 368.131 222.618 368.131 222.621C368.131 222.623 368.131 222.625 368.131 222.627C368.131 222.629 368.131 222.631 368.131 222.633C368.131 222.635 368.131 222.637 368.131 222.639C368.131 222.641 368.131 222.644 368.131 222.646C368.131 222.648 368.131 222.65 368.131 222.652C368.131 222.654 368.131 222.656 368.131 222.658C368.131 222.66 368.131 222.662 368.131 222.665C368.131 222.667 368.131 222.669 368.131 222.671C368.131 222.673 368.131 222.675 368.131 222.677C368.131 222.679 368.131 222.681 368.131 222.683C368.131 222.686 368.131 222.688 368.131 222.69C368.131 222.692 368.131 222.694 368.131 222.696C368.131 222.698 368.131 222.7 368.131 222.702C368.131 222.705 368.131 222.707 368.131 222.709C368.131 222.711 368.131 222.713 368.131 222.715C368.131 222.717 368.131 222.719 368.131 222.721C368.131 222.724 368.131 222.726 368.131 222.728C368.131 222.73 368.131 222.732 368.131 222.734C368.131 222.736 368.131 222.738 368.131 222.74C368.131 222.743 368.131 222.745 368.131 222.747C368.131 222.749 368.131 222.751 368.131 222.753C368.131 222.755 368.131 222.757 368.131 222.76C368.131 222.762 368.131 222.764 368.131 222.766C368.131 222.768 368.131 222.77 368.131 222.772C368.131 222.775 368.131 222.777 368.131 222.779C368.131 222.781 368.131 222.783 368.131 222.785C368.131 222.787 368.131 222.789 368.131 222.792C368.131 222.794 368.131 222.796 368.131 222.798C368.131 222.8 368.131 222.802 368.131 222.804C368.131 222.807 368.131 222.809 368.131 222.811C368.131 222.813 368.131 222.815 368.131 222.817C368.131 222.819 368.131 222.822 368.131 222.824C368.131 222.826 368.131 222.828 368.131 222.83C368.131 222.832 368.131 222.835 368.131 222.837C368.131 222.839 368.131 222.841 368.131 222.843C368.131 222.845 368.131 222.847 368.131 222.85C368.131 222.852 368.131 222.854 368.131 222.856C368.131 222.858 368.131 222.86 368.131 222.863C368.131 222.865 368.131 222.867 368.131 222.869C368.131 222.871 368.131 222.873 368.131 222.875C368.131 222.878 368.131 222.88 368.131 222.882C368.131 222.884 368.131 222.886 368.131 222.888C368.131 222.891 368.131 222.893 368.131 222.895C368.131 222.897 368.131 222.899 368.131 222.901C368.131 222.904 368.131 222.906 368.131 222.908C368.131 222.91 368.131 222.912 368.131 222.915C368.131 222.917 368.131 222.919 368.131 222.921C368.131 222.923 368.131 222.925 368.131 222.928C368.131 222.93 368.131 222.932 368.131 222.934C368.131 222.936 368.131 222.938 368.131 222.941C368.131 222.943 368.131 222.945 368.131 222.947C368.131 222.949 368.131 222.952 368.131 222.954C368.131 222.956 368.131 222.958 368.131 222.96C368.131 222.963 368.131 222.965 368.131 222.967C368.131 222.969 368.131 222.971 368.131 222.973C368.131 222.976 368.131 222.978 368.131 222.98C368.131 222.982 368.131 222.984 368.131 222.987C368.131 222.989 368.131 222.991 368.131 222.993C368.131 222.995 368.131 222.998 368.131 223C368.131 223.002 368.131 223.004 368.131 223.006C368.131 223.009 368.131 223.011 368.131 223.013C368.131 223.015 368.131 223.017 368.131 223.02C368.131 223.022 368.131 223.024 368.131 223.026C368.131 223.028 368.131 223.031 368.131 223.033C368.131 223.035 368.131 223.037 368.131 223.04C368.131 223.042 368.131 223.044 368.131 223.046C368.131 223.048 368.131 223.051 368.131 223.053C368.131 223.055 368.131 223.057 368.131 223.059C368.131 223.062 368.131 223.064 368.131 223.066C368.131 223.068 368.131 223.071 368.131 223.073C368.131 223.075 368.131 223.077 368.131 223.079C368.131 223.082 368.131 223.084 368.131 223.086C368.131 223.088 368.131 223.091 368.131 223.093C368.131 223.095 368.131 223.097 368.131 223.099C368.131 223.102 368.131 223.104 368.131 223.106C368.131 223.108 368.131 223.111 368.131 223.113C368.131 223.115 368.131 223.117 368.131 223.12C368.131 223.122 368.131 223.124 368.131 223.126C368.131 223.129 368.131 223.131 368.131 223.133C368.131 223.135 368.131 223.137 368.131 223.14C368.131 223.142 368.131 223.144 368.131 223.146C368.131 223.149 368.131 223.151 368.131 223.153C368.131 223.155 368.131 223.158 368.131 223.16C368.131 223.162 368.131 223.164 368.131 223.167C368.131 223.169 368.131 223.171 368.131 223.173C368.131 223.176 368.131 223.178 368.131 223.18C368.131 223.182 368.131 223.185 368.131 223.187C368.131 223.189 368.131 223.191 368.131 223.194C368.131 223.196 368.131 223.198 368.131 223.2C368.131 223.203 368.131 223.205 368.131 223.207C368.131 223.209 368.131 223.212 368.131 223.214C368.131 223.216 368.131 223.219 368.131 223.221C368.131 223.223 368.131 223.225 368.131 223.228C368.131 223.23 368.131 223.232 368.131 223.234C368.131 223.237 368.131 223.239 368.131 223.241C368.131 223.243 368.131 223.246 368.131 223.248C368.131 223.25 368.131 223.253 368.131 223.255C368.131 223.257 368.131 223.259 368.131 223.262C368.131 223.264 368.131 223.266 368.131 223.268C368.131 223.271 368.131 223.273 368.131 223.275C368.131 223.278 368.131 223.28 368.131 223.282C368.131 223.284 368.131 223.287 368.131 223.289C368.131 223.291 368.131 223.294 368.131 223.296C368.131 223.298 368.131 223.3 368.131 223.303C368.131 223.305 368.131 223.307 368.131 223.31C368.131 223.312 368.131 223.314 368.131 223.316C368.131 223.319 368.131 223.321 368.131 223.323C368.131 223.326 368.131 223.328 368.131 223.33C368.131 223.332 368.131 223.335 368.131 223.337C368.131 223.339 368.131 223.342 368.131 223.344C368.131 223.346 368.131 223.349 368.131 223.351C368.131 223.353 368.131 223.355 368.131 223.358C368.131 223.36 368.131 223.362 368.131 223.365C368.131 223.367 368.131 223.369 368.131 223.372C368.131 223.374 368.131 223.376 368.131 223.379C368.131 223.381 368.131 223.383 368.131 223.385C368.131 223.388 368.131 223.39 368.131 223.392C368.131 223.395 368.131 223.397 368.131 223.399C368.131 223.402 368.131 223.404 368.131 223.406C368.131 223.409 368.131 223.411 368.131 223.413C368.131 223.416 368.131 223.418 368.131 223.42C368.131 223.422 368.131 223.425 368.131 223.427C368.131 223.429 368.131 223.432 368.131 223.434C368.131 223.436 368.131 223.439 368.131 223.441C368.131 223.443 368.131 223.446 368.131 223.448C368.131 223.45 368.131 223.453 368.131 223.455C368.131 223.457 368.131 223.46 368.131 223.462C368.131 223.464 368.131 223.467 368.131 223.469C368.131 223.471 368.131 223.474 368.131 223.476C368.131 223.478 368.131 223.481 368.131 223.483C368.131 223.485 368.131 223.488 368.131 223.49C368.131 223.492 368.131 223.495 368.131 223.497C368.131 223.499 368.131 223.502 368.131 223.504C368.131 223.506 368.131 223.509 368.131 223.511C368.131 223.513 368.131 223.516 368.131 223.518C368.131 223.521 368.131 223.523 368.131 223.525C368.131 223.528 368.131 223.53 368.131 223.532C368.131 223.535 368.131 223.537 368.131 223.539C368.131 223.542 368.131 223.544 368.131 223.546C368.131 223.549 368.131 223.551 368.131 223.553C368.131 223.556 368.131 223.558 368.131 223.561C368.131 223.563 368.131 223.565 368.131 223.568C368.131 223.57 368.131 223.572 368.131 223.575C368.131 223.577 368.131 223.579 368.131 223.582C368.131 223.584 368.131 223.587 368.131 223.589C368.131 223.591 368.131 223.594 368.131 223.596C368.131 223.598 368.131 223.601 368.131 223.603C368.131 223.605 368.131 223.608 368.131 223.61C368.131 223.613 368.131 223.615 368.131 223.617C368.131 223.62 368.131 223.622 368.131 223.624C368.131 223.627 368.131 223.629 368.131 223.632C368.131 223.634 368.131 223.636 368.131 223.639C368.131 223.641 368.131 223.643 368.131 223.646C368.131 223.648 368.131 223.651 368.131 223.653C368.131 223.655 368.131 223.658 368.131 223.66C368.131 223.663 368.131 223.665 368.131 223.667C368.131 223.67 368.131 223.672 368.131 223.675C368.131 223.677 368.131 223.679 368.131 223.682C368.131 223.684 368.131 223.686 368.131 223.689C368.131 223.691 368.131 223.694 368.131 223.696C368.131 223.698 368.131 223.701 368.131 223.703C368.131 223.706 368.131 223.708 368.131 223.71C368.131 223.713 368.131 223.715 368.131 223.718C368.131 223.72 368.131 223.722 368.131 223.725C368.131 223.727 368.131 223.73 368.131 223.732H370.131ZM370.131 220.826C370.15 220.097 370.286 217.112 370.54 211.846L368.543 211.75C368.289 217 368.151 220.016 368.131 220.773L370.131 220.826ZM369.541 210.798H369.307V212.798H369.541V210.798ZM368.357 211.484L358.388 241.687L360.287 242.313L370.256 212.111L368.357 211.484ZM359.337 241H351.86V243H359.337V241ZM352.816 241.706L343.521 211.446L341.609 212.033L350.904 242.294L352.816 241.706ZM342.565 210.739H342.33V212.739H342.565V210.739ZM341.331 211.791C341.664 218.151 341.829 222.229 341.829 224.055H343.829C343.829 222.166 343.661 218.033 343.329 211.687L341.331 211.791ZM341.829 224.055V242H343.829V224.055H341.829ZM342.829 241H335.527V243H342.829V241ZM336.527 242V203.412H334.527V242H336.527ZM335.527 204.412H346.641V202.412H335.527V204.412ZM345.685 203.708L354.834 233.206L356.744 232.614L347.596 203.115L345.685 203.708ZM355.789 233.91H355.936V231.91H355.789V233.91ZM356.886 233.222L366.562 203.723L364.662 203.1L354.986 232.598L356.886 233.222ZM365.612 204.412H376.755V202.412H365.612V204.412ZM375.755 203.412V242H377.755V203.412H375.755ZM376.755 241H369.131V243H376.755V241ZM370.131 242V223.732H368.131V242H370.131Z" fill="#FFC038" mask="url(#path-3-outside-1_3_10)"/>
</svg>
